<?xml version="1.0" encoding="UTF-8"?> <svg xmlns="http://www.w3.org/2000/svg" id="Слой_1" data-name="Слой 1" width="500" height="500" viewBox="0 0 500 500"> <g> <path d="M285.74,322.93c0,18.09,0,36.19,0,54.28a76.39,76.39,0,0,1-.71,12.58c-2.74,16-15.78,21.19-28.63,11.49a107.11,107.11,0,0,1-10.72-9.84q-56.06-56-112-112c-2.29-2.29-4.54-4.63-6.61-7.11-10.07-12.06-9.9-22.25,1.13-33.42,20.48-20.76,41.2-41.28,61.82-61.89q29.21-29.22,58.42-58.41a75.11,75.11,0,0,1,7.08-6.64c13.82-10.65,28.37-4.84,30,12.51,1.09,11.57.55,23.3.64,35,.07,10,0,20,0,30.26,4.81.09,6.33-3.66,8.67-5.92,24-23.16,46.57-47.78,71.34-70.16,6.12-5.54,12.77-9,21.08-5.4s10.25,11.1,10.26,19.26q.1,93.31.12,186.61,0,32.57,0,65.12a54.55,54.55,0,0,1-.67,10.63c-3.29,16.32-16.74,21.22-29.52,10.53-6.69-5.59-12.78-11.92-19-18.08Q318.2,352.2,288.12,322Zm91.85,65.77,2.41-1.41v-262c-2.89-.39-3.88,1.57-5.15,2.84q-60.78,60.84-121.58,121.64c-5.79,5.76-4.18,9.45.8,14.39q44.13,43.8,87.9,88C354,364.17,365.73,376.49,377.59,388.7Zm-109.47-1.3A7.1,7.1,0,0,0,269,385c.09-25.9.06-51.8.21-77.7,0-4.42-2.39-7.15-5.19-9.92-8.06-8-16.36-15.69-24-24-11-12-10.82-22,.43-34,7.52-8,15.32-15.81,23.23-23.47a17.38,17.38,0,0,0,5.61-13.74c-.29-21.37-.12-42.74-.3-64.11,0-4.3,1.05-8.84-1.28-13.74a58.09,58.09,0,0,0-5,3.91Q202,189,141.15,249.79c-5.25,5.22-4.59,8.68.31,13.55q60.6,60.27,120.93,120.83C263.87,385.64,265,388.06,268.12,387.4Z"></path> <path d="M88.14,255.82q0-65.59,0-131.19a82,82,0,0,1,.22-8.73c.53-5,2.83-8.88,8.43-8.79,5,.08,7.41,3.51,7.88,8.24a94.79,94.79,0,0,1,.5,9.68q0,133.6.06,267.21c0,6.11,0,12.73-8.07,12.82-8.47.1-9-6.75-9-13.21Q88.14,323.84,88.14,255.82Z"></path> </g> </svg> 