<?xml version="1.0" encoding="UTF-8"?> <svg xmlns="http://www.w3.org/2000/svg" id="Слой_1" data-name="Слой 1" width="500" height="500" viewBox="0 0 500 500"> <g> <path d="M432.15,281.79c-1,25.9,1.57,51.88-1.32,77.69-2.42,21.64-21.36,37.43-42.94,37s-41-18.12-42.8-39a44,44,0,0,1,34.39-46.46A40.17,40.17,0,0,1,405.91,314c4.85,2.28,6.89,1.57,6.86-4.35-.14-30.14,0-60.28.07-90.41,0-5.06-1.59-8.51-6.48-10.7-21.55-9.63-43.12-19.24-64.43-29.39-7.58-3.62-7.93-.24-7.94,5.78q0,58.82-.39,117.63c-.06,8.41-.61,16.8-4.61,24.57-10.69,20.75-34.71,29.68-55.33,20.43-21.53-9.65-31.85-34.49-23.24-55.92,8.79-21.91,33-33.2,55.25-24.15,10,4.05,9.46.18,9.41-7.17-.23-31.11-.17-62.22-.07-93.33.05-15.26,5.33-18.67,19.24-12.33,28.54,13,56.94,26.34,85.5,39.29,8.76,4,12.6,10.17,12.48,19.78C431.94,236.42,432.14,259.11,432.15,281.79ZM364.21,353.4c0,12.8,11.18,23.79,24.27,23.93,12.77.14,23.84-11,24-24.1A24,24,0,0,0,388.84,329,24.39,24.39,0,0,0,364.21,353.4Zm-73.57-69.54c-13.79,0-23.76,9.84-24,23.63-.22,13.48,11,25,24.29,24.87,12.41-.14,23.54-11.68,23.77-24.68S303.89,283.85,290.64,283.86Z"></path> <path d="M484.35,165.53c.22,7.25-7,11.23-13.91,8-9.64-4.55-18.5-10.53-28.37-14.77q-93.15-40-178.69,14.1c-27.5,17.41-55.87,32.18-88.46,37.8-42.07,7.25-80.85-2.16-117.86-21.63-7.14-3.76-14.08-7.94-20.89-12.28-5.39-3.43-10.58-7.63-5.72-14.86,4.49-6.67,9.9-4,15.17-.63,20.81,13.42,43,23.89,67.16,29.51,43.7,10.16,84.08.5,122-21.65,22.85-13.35,44.77-28.27,70.54-36,60.76-18.21,117.63-8.92,171.37,23.48C480.27,158.75,483.74,161.29,484.35,165.53Z"></path> <path d="M154.3,307.17c-47.67-.6-84.64-14.83-118.82-37.33-5-3.27-9.85-7.48-5.18-14.27s10.27-3.82,15.33-.6c23.1,14.71,47.37,26.54,74.64,31.27,34.43,6,66.92-.77,98-15.44,11.09-5.24,21.68-11.54,32.54-17.28,4.91-2.59,9.36-2.33,12.66,2.73,3.49,5.36,1,9.37-3.43,12.32C226.1,291.13,189.6,306.47,154.3,307.17Z"></path> <path d="M148.28,404.91c-42.56-.46-79.66-15-113.93-38-5.11-3.44-7.33-7.93-4.22-13.13,3.56-6,8.92-5.1,14.27-1.69,19.7,12.55,40.06,23.61,63,29.34,45.28,11.31,87.05,1.49,126.86-20.54,5.37-3,10.51-6.36,15.89-9.3,5.13-2.8,10-2.86,13.45,2.75s.34,9.34-4,12.27C225.75,389.5,189.14,404.45,148.28,404.91Z"></path> </g> </svg> 