<?xml version="1.0" encoding="UTF-8"?> <svg xmlns="http://www.w3.org/2000/svg" id="Слой_1" data-name="Слой 1" width="500" height="500" viewBox="0 0 500 500"> <g> <path d="M95,416.51c3.15-10-2.6-16.44-11.26-22.1-5.12-3.34-12.93-5.79-11.84-13.82,1.12-8.23,9.52-8.25,15.3-9.58,9.81-2.25,15.24-7.57,17.2-17.18a47.11,47.11,0,0,1,3-9.22c3.22-7.41,10.25-9.28,14-2.68,8.82,15.47,20.38,22.39,38.6,19.75,7.84-1.13,11.89,7.35,6.22,13.33-12.59,13.27-14.16,26.71-6.16,42.8,3.06,6.17-2.54,12-8.63,8.95-16.87-8.58-30.69-5.83-44.46,6.59-5.6,5-11.18,1.56-11.94-6C94.72,424.12,95,420.86,95,416.51ZM148.31,376c-13.95,1.4-24.25,0-30.19-12.47C116.18,376.73,108,382.42,96,385.16c13.24,5.07,16.06,14.63,14.68,28,8.16-12,18.34-10.74,31.31-5.4C134.29,394.91,138,385.85,148.31,376Z"></path> <path d="M95.06,283.7c2.46-8.39-1.45-15.22-10.55-19.52a14.26,14.26,0,0,1-3.12-2.28c-4.19-3.65-11-5.92-9-13.32,1.72-6.37,8.1-7.23,13.23-8.05,11-1.77,17.37-7.57,19.39-18.48a42,42,0,0,1,2.73-8.23c3.21-7.76,10.77-9.83,14.48-2.82,8.53,16.14,20.58,22.11,38.47,19.94,7.19-.88,9.73,5.22,6.48,12.07-5.13,10.82-8.47,33.16-6.6,44.19,1.16,6.84-2.6,10.48-9.47,9.16a2.81,2.81,0,0,1-.9-.35c-15.28-8.78-28.5-7-41.64,5.47-7.06,6.67-13,2.71-13.49-7.41C95,291.16,95.06,288.25,95.06,283.7Zm14.6-1.23c9-7.79,16-12.45,25.6-7.58,3.88,2,5.64-.66,3.94-4.29-3.58-7.64-1.25-13.7,4-19.42,1.16-1.26,2.93-2.75,1.07-5.43-11.06,1.06-19.74-4.09-27.2-14.21-1.41,13.33-9.28,18.76-20.94,22C107.09,260.13,112.18,268.44,109.66,282.47Z"></path> <path d="M94.6,155.49c3.63-11.17-2.29-18.07-11.72-23.19a21.75,21.75,0,0,1-3.22-2.15c-3.75-3-8.64-5.72-8-11.29.7-6.11,6.71-7.17,11.14-7.61,15-1.51,21.78-10.14,23.74-24.28.6-4.33,2-9.32,7.48-10.23s7.89,3.56,10.77,7a23,23,0,0,1,3.34,4.73c4.28,8.94,11,12.41,21.08,11.72,5.86-.4,13.69-3.73,17.75,3.5,4.39,7.8-2.77,12.68-6.85,17.48-6.61,7.78-8.47,15.39-3.5,24.61a39.54,39.54,0,0,1,3.26,10.12c1.68,7.36-2.41,11.21-9.6,9.17a37.87,37.87,0,0,1-7.27-2.6c-10.7-5.58-19.9-4-28.85,4.23-3.9,3.59-8.49,9.27-15.07,5.93C91.82,169,96,161.59,94.6,155.49Zm23.09-54.23c-.45,14.58-10.84,18.07-24.11,22.31,15,5,17.75,14.42,17,26.89,8.46-9.25,17.59-12.05,29.29-5.46-5.88-11.9-.76-20.56,7.83-30C134.38,115.1,123.55,114.38,117.69,101.26Z"></path> <path d="M322.55,401.72q-47.16,0-94.31,0a36.91,36.91,0,0,1-9.57-1c-3.86-1.06-5.54-4.15-5.55-8.17,0-4.29,2.4-6.74,6.23-7.5a53.78,53.78,0,0,1,10.61-.88q93.35-.08,186.68,0a39,39,0,0,1,9.59,1c3.4.88,5.38,3.43,5.4,7.17,0,3.9-1.15,7.3-5.23,8.29a45.12,45.12,0,0,1-10.51,1.11Q369.21,401.79,322.55,401.72Z"></path> <path d="M322.2,110.06q47.07,0,94.14,0a42.64,42.64,0,0,1,8.7.43c4.26.9,6.64,3.83,6.7,8.31s-2.5,7.33-6.65,8.34c-2.47.6-5.15.39-7.73.4q-93.18.12-186.35.18a65,65,0,0,1-10.64-.52c-4.19-.69-7-3.13-7.16-7.82-.15-5,2.38-8,7.11-8.88a54.61,54.61,0,0,1,9.67-.44Q276.1,110,322.2,110.06Z"></path> <path d="M321.35,264.57q-46.16,0-92.31,0a47.72,47.72,0,0,1-9.65-.7c-4.38-.92-6.41-4.09-6.38-8.52,0-4.83,3-6.92,7.36-7.3,3.55-.32,7.11-.54,10.67-.54q92.81,0,185.61,0a44.23,44.23,0,0,1,9.62.87c3.54.8,5.29,3.48,5.33,7.17.06,3.93-1.22,7.2-5.41,8a55.1,55.1,0,0,1-10.58,1Q368.48,264.64,321.35,264.57Z"></path> </g> </svg> 