<?xml version="1.0" encoding="UTF-8"?> <svg xmlns="http://www.w3.org/2000/svg" id="Слой_1" data-name="Слой 1" width="500" height="500" viewBox="0 0 500 500"> <g> <path d="M251.81,457c-57.69-.26-109.15-16.81-150.25-58.92-31.13-31.9-43.91-70.26-36.68-114.57,1.2-7.38-2.37-9.39-7.92-11.88-27.35-12.26-38.43-36.52-28.85-62.34,5.68-15.3,16.42-26.08,32.09-29.71,11.26-2.61,16.66-8.77,20.86-18.72,49-116.15,213.73-145.3,303.9-52.1a170.19,170.19,0,0,1,37.16,57.52c4.4,11.48,11.29,18.69,23.12,22.67,19.81,6.68,30.53,21.77,31.9,42.19s-7.56,37.26-26.36,45.79c-11.77,5.35-14.95,11.74-14.27,24.17,2.56,46.85-18.42,83.21-54.2,111.34C342.17,444,302.15,457,251.81,457ZM223.39,70.94c-46.62,8.94-85.92,29.36-113.32,69.31a163.85,163.85,0,0,0-27.19,66.88c-.88,5.35-3.56,8.54-9,7.74-5.29-.76-5.94-5.27-6.11-9.67a21.85,21.85,0,0,1,.36-2.87c.26-2.74,2.52-6.17-.52-8-2.59-1.55-5.47.79-8,2.1-23.68,12-25.72,42-4,57,7.67,5.32,14.49,9.24,20.23-2.36,1.75-3.53,5.54-4.07,9.35-2.32,4,1.83,4.8,5,3.85,8.85a50.36,50.36,0,0,1-2.06,5.43C70.2,307.22,78,347.42,108.55,382.52c31.28,36,72.61,53.72,119.31,57.87,60.39,5.38,115.51-8,159.13-53.05,34.19-35.29,43.58-76.68,26.32-123.36a45.38,45.38,0,0,1-2-6.48c-.82-4,.41-7.13,4.53-8.42,3.81-1.2,7.13-.34,9.13,3.37a36,36,0,0,1,3.56,7.95c2,7.71,6.85,7.71,12.59,4.92,12.78-6.22,19.8-16.75,20.08-30.78.28-13.86-6.69-23.94-19.15-30.19-6.25-3.14-10.5-3.85-8.89,5.63.85,5-.81,9.26-6.61,9.86-5.31.56-7.23-3.44-8.49-7.66a41.88,41.88,0,0,1-.93-5.74,142.23,142.23,0,0,0-10.19-36.22c-26.83-62-76.42-92-141.13-101a21.34,21.34,0,0,0-12.25,1.86c-28.75,13.38-43.18,47.79-32.14,76.72,11.51,30.15,48.31,49.68,77.19,41,9.3-2.81,15.44-11.21,14.85-20.34-.6-9.36-7.34-16.84-16.89-18.69-5.52-1.07-11-.38-16.36.93-4.4,1.06-7.77-.22-9.33-4.65-1.81-5.12,1.18-7.87,5.32-9.9,17.71-8.68,42.45,1.37,50.23,20.41,7.51,18.39-2.44,39.4-21.61,46.27-12,4.32-24.09,3.93-36.36,1.57C204.8,192.1,181.3,120.09,221,76.81,222.28,75.45,223.79,74,223.39,70.94Z"></path> <path d="M251.79,328.87c14.76-.32,20.27-5.22,21.1-19.21.23-3.86,2.05-6,5.52-6.93s6.7-.26,8.22,3.26a52,52,0,0,0,16.09,21.37c3.78,2.92,2.54,7-.23,10.31s-6,3.27-9.2.38c-6.15-5.57-12.31-4.26-18.55-.11-14.74,9.81-30,8.4-45.16,1.44-5.26-2.42-9.4-4.67-14.86,0-3.31,2.82-8.06,2.29-11.18-1.75s-1.65-7.34,1.79-10.1c6.83-5.46,10.78-12.7,13.42-20.84,1.5-4.63,5.05-5.56,9.3-4.56s5.55,4.21,5.5,8c-.06,4.45-5.14,8.79.07,13.37C237.18,326.65,244.43,329,251.79,328.87Z"></path> <path d="M204,282c-6.25-.9-10.54-5.08-10.4-12.71.14-7.82,5.28-12.06,12.43-12s12,4.74,12.44,12.26C218.93,276.41,212.46,282.23,204,282Z"></path> <path d="M295.53,283.21c-7.6-.9-12.37-4.41-12.47-12.32a11.84,11.84,0,0,1,13-12.32c7.66.64,11.58,5.38,11.88,12.74C308.24,277.77,301.79,283.43,295.53,283.21Z"></path> <path d="M186,307.37c-2.25,0-4.51.16-6.74,0-4.39-.39-7.22-2.6-7.44-7.27-.24-5.24,2.9-7.69,7.57-8.13a98.79,98.79,0,0,1,12.53-.1c5.4.18,9.7,2.15,9.38,8.44-.29,5.78-4.58,7.11-9.51,7.18-1.93,0-3.86,0-5.79,0Z"></path> <path d="M318.26,290.92c.62.07,3.17.36,5.72.68,3.71.47,5.7,2.56,6,6.32.4,4.33-1.87,6.9-5.74,7.57a58.46,58.46,0,0,1-13.39,1c-4.72-.27-9.09-2-8.8-8s4.5-7.22,9.39-7.49C313.09,290.85,314.7,290.92,318.26,290.92Z"></path> </g> </svg> 