<?xml version="1.0" encoding="utf-8"?>
<!-- Generator: Adobe Illustrator 26.3.1, SVG Export Plug-In . SVG Version: 6.00 Build 0)  -->
<svg version="1.1" id="Layer_1" xmlns="http://www.w3.org/2000/svg" xmlns:xlink="http://www.w3.org/1999/xlink" x="0px" y="0px"
	 viewBox="0 0 282.6 174.9" style="enable-background:new 0 0 282.6 174.9;" xml:space="preserve">
<g>
	<path d="M108.6,87.4c0-26.2,0-52.3,0-78.5c0-8.2,1.7-9.6,9.8-8.7c45.7,5.2,91.3,10.3,137,15.4c7.1,0.8,14.2,1.8,21.3,2.5
		c4,0.4,5.9,2.3,5.9,6.5c0,41.8,0,83.7,0,125.5c0,4-1.7,6.1-5.8,6.6c-35.1,3.9-70.2,7.9-105.2,11.9c-18,2-36.1,4.1-54.1,6.1
		c-7.2,0.8-8.9-0.9-8.9-8.3C108.6,140.1,108.6,113.8,108.6,87.4z M119.3,87.3c0,23.8,0.1,47.6-0.1,71.4c0,4.6,1.5,5.2,5.5,4.5
		c6.9-1.1,13.8-1.8,20.8-2.6c40.5-4.6,81-9.3,121.5-13.8c4.3-0.5,5-2.1,5-5.9c-0.1-35.6-0.2-71.3,0-106.9c0-4.7-1.4-6.1-6-6.6
		c-22.5-2.3-45-5-67.5-7.6c-24.5-2.8-48.9-5.5-73.4-8.4c-4.4-0.5-6,0.3-5.9,5.2C119.5,40.3,119.3,63.8,119.3,87.3z"/>
	<path d="M43.4,87.4c0-21.2,0-42.3,0-63.5c0-7.3,1.7-9,8.9-8.3c13.1,1.3,26.1,2.8,39.2,4.3c0.8,0.1,1.6,0.3,2.5,0.4
		c3.2,0.5,5.4,2.3,5,5.7c-0.4,3.5-2.8,5.2-6.3,4.9c-8.3-0.8-16.5-1.8-24.8-2.7c-2.5-0.3-5-0.5-7.4-0.8c-6.2-0.7-6.2-0.7-6.2,5.7
		c0,36.5,0.1,73-0.1,109.4c0,4.7,1.4,5.6,5.6,5c10.4-1.3,20.8-2.3,31.3-3.6c3.7-0.4,7.3-0.6,8.2,4.1c0.8,3.8-1.7,5.9-6.9,6.5
		c-13.2,1.5-26.5,3.1-39.7,4.7c-7.2,0.9-9.3-1-9.3-8.4C43.4,129.7,43.4,108.5,43.4,87.4z"/>
	<path d="M10.7,87.7c0,12,0.1,24,0,36c0,2.7,0.4,3.9,3.5,3.2c3.1-0.7,6.3-0.9,9.4-1.1c3.4-0.2,6,1.3,6.2,5c0.2,3.3-1.9,5.2-5.1,5.6
		c-5.8,0.7-11.6,1.5-17.4,2c-5,0.4-7.2-1.4-7.2-6.6c-0.1-29.7-0.1-59.3,0-89c0-5.1,2-6.8,7.3-6.4c5.6,0.4,11.3,1.2,16.9,1.9
		c3.4,0.4,5.7,2.2,5.2,5.9s-3.1,4.8-6.6,4.4c-1.5-0.2-3-0.2-4.5-0.3c-7.6-0.7-7.6-0.7-7.6,7.2C10.7,66.3,10.7,77,10.7,87.7z"/>
	<path d="M205.3,31.3c3.6,0.1,6.1,3.8,4.6,7.1c-0.6,1.3-1.6,2.5-2.7,3.5c-20.7,20.7-41.4,41.5-62.2,62.2c-0.8,0.8-1.6,1.7-2.6,2.3
		c-2.2,1.5-4.5,1.2-6.4-0.5c-2-1.7-2.3-4.1-0.9-6.3c0.8-1.3,1.8-2.4,2.8-3.5c20.5-20.5,41-41,61.5-61.5
		C201,33,202.7,31.3,205.3,31.3z"/>
	<path d="M134.3,58.9c0-2.2,1.3-3.7,2.8-5.1c7.1-7.1,14.2-14.1,21.2-21.2c2.6-2.6,5.5-4.4,8.7-1.4c3.3,3.2,1.7,6.2-1.2,9
		c-7.4,7.2-14.6,14.6-21.9,21.9c-1.7,1.7-3.6,3-6.2,1.8C135.4,62.9,134.2,61.3,134.3,58.9z"/>
</g>
</svg>
