<?xml version="1.0" encoding="utf-8"?>
<!-- Generator: Adobe Illustrator 26.3.1, SVG Export Plug-In . SVG Version: 6.00 Build 0)  -->
<svg version="1.1" id="Layer_1" xmlns="http://www.w3.org/2000/svg" xmlns:xlink="http://www.w3.org/1999/xlink" x="0px" y="0px"
	 viewBox="0 0 216 194" style="enable-background:new 0 0 216 194;" xml:space="preserve">
<g>
	<path d="M216,59.3c-0.4,16-5.9,29.9-16.9,41.5c-28.7,30.1-57.3,60.1-86,90.2c-3.7,3.9-6.4,3.9-10.2-0.1
		c-29.2-30.7-58.6-61.1-87.3-92.1C-12.9,68-0.7,17.4,38.7,3.3c20-7.2,38.4-2.5,54.3,11.5c4.7,4.1,8.8,8.8,13,13.4
		c1.7,1.8,2.6,1.7,4.2,0c6.2-6.4,11.9-13.4,19.5-18.4c28.2-18.7,66-7.9,80.4,23C214,41,216.2,49.9,216,59.3z M204.8,54.4
		c-0.3-12.7-7.1-26.7-21.5-36.1c-18.1-11.9-39.8-8.8-55.6,7.4c-4.9,5-9.6,10.3-14.4,15.3c-3.7,3.8-6.6,3.7-10.3-0.1
		c-4.8-5-9.4-10.1-14.2-15C77.8,14.8,64.7,9,49,11.9c-17.8,3.3-29.5,14.4-35.1,31.2C8.2,60,10.5,76.6,22.6,89.9
		c27.4,29.9,55.6,58.9,83.4,88.4c1.8,2,2.7,1.4,4.2-0.2c27-28.4,54.1-56.7,81.1-85.2C200.4,83.3,204.9,71.9,204.8,54.4z"/>
</g>
</svg>
