<?xml version="1.0" encoding="UTF-8"?> <!-- Generator: Adobe Illustrator 25.4.1, SVG Export Plug-In . SVG Version: 6.00 Build 0) --> <svg xmlns="http://www.w3.org/2000/svg" xmlns:xlink="http://www.w3.org/1999/xlink" id="Layer_1" x="0px" y="0px" viewBox="0 0 500 500" style="enable-background:new 0 0 500 500;" xml:space="preserve"> <style type="text/css"> .st0{stroke:#000000;stroke-miterlimit:10;} </style> <g> <path class="st0" d="M344.9,350.9c-2.2,4-2.8,7.4-4.9,10c-5,6.2-12.9,6.1-17.4-0.6c-2.2-3.4-3.4-7.2-3.7-11.3 c-1.2-16.2-2.5-32.4-3.7-48.6c-0.2-2.7-0.3-5.2-2.4-7.4c-6.3-6.5-8-14.7-8-23.4c0-10,0-20.1,0-30.1c0.1-20.4,13-35.1,33.4-37.6 c11.4-1.4,22.1,0.7,31.7,7.5c9.6,6.8,14.7,15.9,14.7,27.7c0,11.4-0.1,22.7,0,34.1c0.1,8-2.4,14.9-7.5,20.9 c-2.1,2.5-3.1,5.2-3.3,8.4c-0.9,14.7-1.9,29.3-3,44c-0.3,3.7-0.8,7.6-1.9,11.1c-1.6,5.1-4.7,9.4-10.6,9.7c-6,0.3-9.2-3.7-11.4-8.7 C346.1,355.1,345.7,353.4,344.9,350.9z M308.1,254.4c0,5.3,0.2,10.7,0,16c-0.6,12.9,5.6,21.8,16.4,27.5c13.8,7.3,27.9,7,41.5-0.7 c10.1-5.7,15.3-14.7,15.5-26.3c0.2-11.1,0.2-22.3,0-33.4c-0.2-12.7-6.1-21.9-17.4-27.9c-10.9-5.8-22.4-6.6-33.6-2.4 c-14.2,5.3-23.3,14.8-22.4,31.1C308.3,243.7,308.1,249,308.1,254.4z M318.9,299c-0.5,11.6,1.2,22.4,1.9,33.1 c0.5,7.1,0,14.3,2.1,21.2c1.3,4.3,3.3,8.9,8.6,8.8c5.3-0.1,7.8-4.5,8.5-8.9c2.2-14.5,3.8-29.1,2-43.8c-0.2-2-0.8-3.4-3.1-3.5 C332,305.3,325.7,302.5,318.9,299z M369.9,299.6c-6,2.3-11.1,5.5-16.8,5.7c-5.2,0.2-5.8,2.9-6.2,7.2c-1.1,12.5,0.3,24.9,1.5,37.3 c0.7,7.1,4.7,12.2,9.2,12.3c4.4,0.1,8.5-5,9.5-12.1c0.6-4.9,1-9.8,1.1-14.7C368.4,323.7,370.4,312,369.9,299.6z"></path> <path class="st0" d="M108.8,261.2c0,7.8,0.3,15.6-0.1,23.4c-0.3,5.1,1.6,6.4,6.4,6.4c22.5-0.2,45-0.1,67.5-0.1 c8.5,0,9.1,0.9,7.3,9.3c-3.6,16.8-13.8,28.6-28,37.3c-28.8,17.8-71.7,14-96-8.5c-17.8-16.4-22.4-39.5-11.7-62.2 c9.8-20.6,25.9-32.7,49.1-35c4.9-0.5,5.7,1.1,5.6,5.3C108.6,245.2,108.8,253.2,108.8,261.2z M119.9,293.9c-20.5,0-41,0-61.5,0 c-6.8,0-7.2,0.5-5.8,7.3c1.5,7.4,4.9,13.8,9.7,19.5c23.6,28.5,73.7,33.3,103.8,10.1c10.1-7.7,17.4-17.1,20.2-29.7 c1.5-6.7,1.1-7.3-5.7-7.3C160.5,293.8,140.2,293.9,119.9,293.9z M105.4,263c0-8-0.1-16,0-24c0-3.3-1.2-4.1-4.4-3.8 c-24.9,2.3-47.4,26-48.6,50.9c-0.2,4.1,1.1,4.9,4.7,4.9c14.2-0.1,28.5-0.2,42.8,0c4.5,0.1,5.7-1.7,5.6-5.9 C105.2,277.7,105.4,270.3,105.4,263z"></path> <path class="st0" d="M287.1,302.8c0.7,2.4-1,3.3-4.4,3.5c-4.7,0.3-10.9-2.5-13.9,1.6c-2.4,3.3-1.7,9-2.3,13.6 c-1.2,9.5-2.3,19-3.6,28.5c-1.3,9.8-7.9,16-16.6,15.9c-8.9-0.1-15.8-7-16.9-16.7c-1.3-12.4-3-24.8-4-37.2c-0.4-4.8-2.3-5.8-6.6-5.8 c-13.7,0-13.8-0.2-12-13.5c2.9-21.8,5.8-43.7,9-65.5c2.3-15.6,15.9-26.2,32.4-25.5c15.8,0.6,27.5,12.7,29.2,28.4 c2.3,21.7,5.6,43.2,8.5,64.8C286.4,297.1,286.7,299.3,287.1,302.8z M246.6,303.3c9.6,0,19.2,0,28.7,0c8.5,0,8.6,0,7.5-8.4 c-2.9-21.8-5.8-43.7-8.6-65.5c-1.9-14.6-13.2-24.8-27.6-24.7c-14.7,0-26.1,10.5-28,25.3c-2.9,22.5-5.8,45-8.9,67.5 c-0.6,4.4,0.2,6,4.9,5.9C225.2,303.1,235.9,303.3,246.6,303.3z M246.9,306.2c-4.7,0-9.4,0.1-14,0c-3.2-0.1-4.9,0.6-4.4,4.5 c1.8,13.2,3,26.5,4.7,39.8c0.9,7.2,6.2,11.6,13.1,11.7c6.8,0.1,11.9-3.6,13-10.9c2-13.6,3.3-27.4,5-41.1c0.4-2.9-0.6-4.1-3.6-4 C256.3,306.3,251.6,306.2,246.9,306.2z"></path> <path class="st0" d="M424,358.8c-1,1.5-1.8,2.9-2.8,4.1c-3.5,3.9-7.5,3.6-10.4-0.8c-1.3-2-2.1-4.4-2.2-6.9 c-0.4-6.4-0.9-12.9-1.4-19.3c-0.6-7.4-0.2-15.1-5-21.7c-1.4-1.9-1.9-4.5-1.9-7c0-8.9-0.4-17.8,0.2-26.7 c0.7-12.2,10.2-20.2,22.9-20.4c13.1-0.1,23.1,8,23.8,20.2c0.6,8.9,0.2,17.8,0,26.7c0,2.2-0.4,4.7-1.5,6.4c-5.2,7.4-4.5,16-5.2,24.3 c-0.5,5.8-0.9,11.5-1.3,17.3c-0.1,2.3-0.9,4.4-2.1,6.3c-3.2,5.5-7.1,5.8-11,1C425.5,361.4,424.9,360.2,424,358.8z M444.1,294 c0,0-0.1,0-0.1,0c0-4.9,0.2-9.8,0-14.7c-0.2-5-2.8-8.8-6.8-11.7c-6.9-5-14.4-5.9-22.1-2.6c-7.7,3.3-11.5,9.7-11.7,17.9 c-0.3,7.6-0.3,15.2,0,22.7c0.4,10.6,8.7,18.4,19.6,18.9c10.7,0.5,19.9-6.8,21.1-17.2C444.5,303,444.1,298.5,444.1,294z M410.1,324.9c0.5,10,0.7,19.8,1.5,29.5c0.2,3.1,0.9,7.5,5.1,7.4c3.8-0.1,3.7-4.3,4.4-7.3c1.1-4.6,0.9-9.3,1-14 c0.2-11.8,0.2-11.8-10.5-15.8C411.4,324.7,411.1,324.8,410.1,324.9z M438.4,324.4c-4,1.2-6.9,2.2-9.9,2.9c-1.9,0.5-2.5,1.6-2.6,3.3 c-0.5,8.6-0.5,17.3,1.2,25.8c0.5,2.5,1.4,5.7,4.8,5.4c3-0.2,3.6-3.1,3.8-5.5C436.7,346.1,437.5,335.8,438.4,324.4z"></path> <path class="st0" d="M344.2,144.5c15.2-0.2,27.8,12,28.1,27.1c0.3,15.3-12.4,28.2-27.7,28.2c-15,0-27.7-12.5-27.8-27.5 C316.6,157.3,329.1,144.7,344.2,144.5z M344.2,196.4c13.6,0.2,24.4-10.2,24.7-23.7c0.3-13.4-10.3-24.6-23.6-24.8 c-13.9-0.2-25,10.4-25.1,24C320.1,185.3,330.8,196.3,344.2,196.4z"></path> <path class="st0" d="M218.8,172.3c-0.1-15.1,12.4-27.7,27.5-27.8c15.1-0.1,27.8,12.4,27.9,27.5c0.1,14.9-12.7,27.8-27.6,27.8 C231.4,199.9,218.9,187.5,218.8,172.3z M246.4,196.4c13.4,0,24.3-10.7,24.4-24c0.1-13.7-10.8-24.5-24.6-24.5 c-13.4,0.1-24,10.8-24,24.3C222.3,185.7,233,196.4,246.4,196.4z"></path> <path class="st0" d="M423,258c-11.2-0.1-19.8-8.8-19.8-20c0-11.5,8.9-20.4,20.3-20.2c11,0.2,19.8,9.1,19.9,20.1 C443.4,249.3,434.4,258.1,423,258z M406.3,238.3c0.2,9.2,8,16.9,17.2,16.8c9.1-0.1,16.8-8.1,16.7-17.3c-0.1-9.3-7.8-16.7-17.2-16.6 C413.5,221.3,406.1,228.9,406.3,238.3z"></path> <path class="st0" d="M83.2,353.3c0.1,6.6-5.6,12.4-12.2,12.4c-6.7,0-12.4-5.7-12.3-12.3c0.1-6.3,5.6-11.9,11.9-12.1 C77.1,341,83.1,346.7,83.2,353.3z M79.7,353.5c0-5-3.7-8.9-8.8-8.9c-5,0-8.9,3.9-9,8.8c-0.1,4.9,3.9,8.8,8.9,8.9 C75.9,362.3,79.7,358.6,79.7,353.5z"></path> <path class="st0" d="M180.1,354.1c-0.3,6.6-5.7,11.7-12.1,11.6c-6.7-0.1-12.2-5.8-12-12.5c0.2-6.7,6-12.2,12.6-11.9 C175.3,341.5,180.4,347.2,180.1,354.1z M177.1,353.5c0-4.7-4.2-8.9-8.9-9c-5,0-8.8,3.8-8.9,8.8c-0.1,5.1,3.6,8.8,8.7,8.9 C173,362.3,177.1,358.3,177.1,353.5z"></path> </g> </svg> 